<svg width="1440" height="770" viewBox="0 0 1440 900" fill="none" xmlns="http://www.w3.org/2000/svg">
  <g>
    <path d="M1375.42 282.166C1465.26 303.232 1471.64 212.682 1543.64 200.26C1799.44 156.129 1823.7 771.906 1560.5 864.741C1311.5 952.571 1055.03 447.583 1055.03 447.583C1055.03 447.583 1005.46 313.793 1055.03 259.682C1099.76 210.848 1158.09 213.213 1222.05 230.372C1272.58 243.929 1324.48 270.221 1375.42 282.166Z" fill="#7F30FF"/>
  </g>
  <g>
    <path d="M1200.03 527.948C1332.28 558.973 1341.67 425.622 1447.66 407.328C1824.19 342.338 1859.9 1249.18 1472.48 1385.89C1105.94 1515.24 728.425 771.555 728.425 771.555C728.425 771.555 655.469 574.525 728.425 494.837C794.266 422.92 880.127 426.404 974.276 451.674C1048.66 471.638 1125.05 510.358 1200.03 527.948Z" fill="#00B0FF"/>
  </g>
  <g>
    <ellipse cx="889.5" cy="1069" rx="446.5" ry="446" fill="#0038FF"/>
  </g>
  <g>
    <path d="M167.094 875.621C117.064 1025.21 95.1738 1139.2 167.094 1279.57C307.314 1553.22 809.482 1551.06 953.832 1279.57C1067.92 1064.98 901.364 892.508 780.13 681.882C726.637 588.944 712.765 511.496 619.009 459.567C409.208 343.364 243.217 648.017 167.094 875.621Z" fill="#FF4880"/>
  </g>
  <g>
    <ellipse cx="87" cy="1128.5" rx="356" ry="355.5" fill="#FF8000"/>
  </g>
</svg>  
